<svg xmlns="http://www.w3.org/2000/svg" viewBox="0 0 485 461">
  <style>
    path { fill: #171717; }
    @media (prefers-color-scheme: dark) {
      path { fill: #fafafa; }
    }
  </style>
  <path d="M239.084.122c8.977-.68 12.707 1.485 19.758 6.403 7.598 5.305 15.082 10.777 22.631 16.149l28.768 20.418c4.938 3.512 14.482 9.266 18.053 13.861 2.333 3.007 15.303 50.443 16.552 56.683a18.8 18.8 0 0 1 .224 6.316c-.788 5.764-3.578 9.031-8.196 12.365-17.488 12.626-35.411 24.807-52.645 37.776a1042 1042 0 0 1 19.271 13.778c4.313-3.529 9.524-7.006 14.127-10.245l21.706-15.356 20.984-14.943c3.932-2.786 8.002-5.721 12.09-8.266 2.334-1.451 4.766-2.111 7.393-2.728 6.304-1.483 12.837.546 18.113 4.217 12.627 8.785 25.273 17.761 37.825 26.676 9.037 6.419 18.261 12.75 27.238 19.245 1.115.809 4.887 4.017 5.417 5.245 4.199 9.772 6.422 22.295 9.25 32.568 2.029 7.785 4.237 15.497 6.045 23.34 1.733 7.499-.114 15.045-6.437 19.789-4.717 3.54-9.521 6.856-14.314 10.247l-25.494 18.122-26.347 18.78c-4.644 3.297-9.266 6.704-14.028 9.833-16.568 10.884-30.561-2.912-43.531-12.143l-35.396-25.2c-11.847 7.878-24.433 17.114-36.074 25.403 12.955 8.525 25.399 17.932 38.27 26.737 8.691 5.943 9.711 19.503 13.438 28.944 2.094 6.981 4.949 13.936 6.438 21.074.723 3.465-1.07 10.157-3.48 12.586-4.964 5.002-11.603 9.144-17.374 13.24l-30.919 21.863-20.824 14.789c-6.616 4.698-13.914 10.998-22.079 12.072-12.365 1.892-20.135-5.787-29.545-12.456l-22.754-16.145-28.052-19.91c-4.968-3.533-10.157-6.936-14.927-10.72-1.29-1.024-2.394-2.12-3.369-3.449-2.783-3.814-3.563-8.223-2.76-12.825 1.169-6.704 4.588-14.698 6.67-21.383 2.101-6.75 3.894-15.947 7.56-21.935 3.598-5.878 35.686-26.876 43.798-32.508l-35.998-25.415c-2.508 2.081-6.951 4.998-9.806 7.011l-18.707 13.19c-8.569 6.045-17.313 12.521-26.077 18.265-1.519.998-4.732 2.037-6.525 2.296-8.07 1.164-13.076.152-19.582-4.451-18.203-12.88-36.287-25.885-54.435-38.797L13.8 268.274c-2.993-2.137-6.765-4.376-9.274-7.058-2.262-2.418-3.816-5.775-4.33-9.043-.394-2.499-.142-5.313.3-7.789 1.37-7.651 12.842-53.178 15.79-57.28 1.202-1.671 3.156-3.168 4.775-4.414 12.172-9.366 25.5-18.102 38.073-27.009l18.732-13.254c3.399-2.397 6.877-4.876 10.365-7.142 5.874-3.812 16.167-4.648 22.293-1 7.449 4.438 14.976 10.164 22.129 15.217a2541 2541 0 0 1 48.141 34.274c6.114-4.592 12.867-9.258 19.103-13.731-4.116-3.347-9.967-7.302-14.348-10.449l-25.894-18.528c-5.239-3.737-11.581-7.453-16.039-12.055-2.109-2.178-3.353-4.365-4.046-7.333-.526-2.253-.667-4.518-.293-6.804.921-5.627 14.405-54.643 16.388-57.485 1.268-1.812 3.358-3.419 5.094-4.755 4.278-3.288 8.831-6.26 13.209-9.416a2724 2724 0 0 1 30.702-21.986l16.956-12.038c6.708-4.756 9.22-7.495 17.458-9.074m4.428 123.925c2.2-.344 5.47-.939 7.347-2.241 22.11-15.354 43.908-31.229 65.831-46.86 7.896-5.628 10.427-10.792 1.416-17.32C296.693 42.115 275.04 26.93 253.6 11.456c-3.822-2.76-7.618-4.558-12.418-4.443-2.372.321-4.869.746-6.906 2.084-5.661 3.717-11.268 7.948-16.807 11.857l-39.485 28.203c-5.318 3.814-11.435 7.544-16.141 12.002-2.485 2.353-1.4 8.1 1.165 10.207 3.061 2.516 6.263 4.78 9.483 7.093l17.036 12.186q14.487 10.558 29.145 20.881c7.739 5.493 15.018 12.897 24.84 12.522m-86.347-48.115a1776 1776 0 0 1-6.742 24.629c-1.477 5.291-3.932 11.469-4.142 16.929-.072 1.959.541 3.873 1.58 5.524 1.9 3.028 51.598 37.626 58.5 42.628 3.883-2.705 8.999-6.56 12.871-8.963 6.738-4.792 11.017-8.617 19.327-10.257.019-5.074.087-10.238.042-15.305-8.893-1.741-13.739-6.281-20.885-11.411l-18.604-13.305c-12.661-9.069-30.298-20.852-41.947-30.469m230.222 184.255.038 56.755c3.133-1.043 4.766-1.694 7.465-3.635l51.61-36.832 16.514-11.691c5.668-4.02 16.533-9.62 13.815-18.491-1.177-3.834-2.307-11.724-3.758-15.191-1.873-4.467-4.538-21.679-6.597-24.783-2.688 3.058-13.575 10.41-17.226 13.008l-30.26 21.58c-5.745 4.091-11.524 8.239-17.204 12.42-4.998 3.685-8.104 5.766-14.397 6.86m-141.812 7.887-.034 18.007c8.1 1.459 12.703 5.348 19.251 10.073 3.643 2.483 7.69 5.372 11.397 7.668l36.241-25.592c6.122-4.305 12.529-8.604 18.235-13.316 2.524-2.082 3.438-7.68 2.345-10.332-1.747-4.257-9.989-35.586-11.595-36.91-3.605 3.286-9.582 7.248-13.735 10.187l-22.255 15.715-19.666 13.871c-7.778 5.492-10.66 8.538-20.184 10.629m146.015-16.599c4.298-2.501 9.715-6.747 13.857-9.735l22.03-15.751 21.402-15.285c4.142-2.956 13.335-8.333 14.5-13.197a6.9 6.9 0 0 0-.986-5.516c-2.691-4.055-61.378-44.219-69.813-50.363-1.093-.794-4.493-1.966-6.019-2.184-1.675-.237-3.91-.24-5.649-.016-5.859 1.572-8.749 4.327-13.64 7.701-19.278 13.296-38.149 27.842-57.552 40.876 9.418 6.495 13.899 8.473 16.952 20.122.837 3.193 2.269 6.795 3.057 10.383a3535 3535 0 0 1 30.949 22.012c10.142 7.255 17.801 15.953 30.912 10.953m-150.713-97.922c-2.189.293-5.143.665-7.031 1.856-6.925 4.366-13.735 9.417-20.443 14.096L184.3 189.94c-5.143 3.64-12.722 8.582-17.188 13.093-2.421 2.443-.83 8.394 1.827 10.29 1.782 1.272 3.975 3.361 5.973 4.522 18.208 12.804 36.222 25.896 54.552 38.529 4.53 3.123 7.877 4.883 13.564 4.684 2.703-.353 5.261-.742 7.678-2.078 5.608-3.099 62.981-43.477 65.645-46.756 1.424-1.751 2.167-4.084 1.813-6.33a7.47 7.47 0 0 0-2.197-4.202c-2.197-2.121-5.569-4.373-8.093-6.163-17.736-12.558-35.579-24.969-53.33-37.51-4.622-3.268-7.907-4.636-13.667-4.466m-2.364 114.613c-8.984-2.12-13.191-5.896-20.572-11.101l-18.273-12.897c-10.975-7.755-27.234-18.519-37.333-26.704q-3.614 12.662-7.462 25.255c-2.181 7.272-7.385 18.072.232 23.518 17.607 12.591 35.263 25.441 53.148 37.636l10.998-7.63c7.141-5.019 10.51-8.259 19.14-10.03zm7.054 184.715c2.813-1.089 4.797-1.881 7.298-3.598 17.439-12.029 34.878-24.615 52.188-36.865l16.891-11.965c4.899-3.472 12.939-7.77 10.868-15.033-.959-3.35-7.404-25.94-8.942-27.257-3.537 3.407-10.396 7.983-14.618 10.948l-23.892 16.75-19.095 13.621c-6.944 4.964-12.06 9.597-20.694 11.067zM98.852 253.047c9.452.698 19.045-8.373 26.507-13.801 9.513-6.921 19.807-13.629 29.095-20.728.929-3.789 2.391-7.681 3.301-11.051 2.977-11.053 7.743-13.176 16.685-19.434l-45.754-32.543c-3.883-2.762-7.827-5.595-11.717-8.339-7.188-5.072-10.454-8.562-19.667-7.711-8.763 2.332-26.762 17.446-35.237 22.962-11.994 7.806-24.423 17.653-36.27 25.929-5.09 3.73-7.677 8.988-1.739 14.02 4.28 3.625 9.724 7.137 14.412 10.469l25.402 18.151 19.16 13.747c6.522 4.686 7.808 6.772 15.822 8.329m133.871 197.184c2.273 1.291 3.285 1.656 5.775 2.535l.004-42.187c-2.836-.548-6.403-1.45-8.794-3.129-23.149-16.259-47.281-32.339-69.81-49.417-2.805 8.904-6.662 19.24-8.558 28.277-.338 1.611.176 4.154.956 5.654a9.7 9.7 0 0 0 2.413 3.038c2.646 2.257 7.934 5.767 10.903 7.857l19.487 13.777 29.975 21.253c5.6 3.967 11.939 8.661 17.649 12.342m100.542-220.286c.152 1.865 1.177 4.429 1.751 6.291l3.164 10.281c5.912 18.841 1.229 21.66-13.971 32.255 14.428 9.288 31.155 22.032 45.537 32.186 4.207 2.943 5.577 4.222 10.499 5.779-.019-18.739-.19-37.804.042-56.526-9.018-2.258-13.289-6.158-20.644-11.461l-17.987-12.979c-1.912-1.379-6.457-4.779-8.391-5.826M90.317 314.023c2.505 1.48 3.635 1.831 6.43 2.683l.087-56.503c-6.925-1.56-10.008-3.67-15.733-7.863-5.04-3.692-10.183-7.366-15.251-11.03l-38.79-27.758c-1.782-1.279-8.347-6.368-9.53-7.078l-6.473 25.213c-2.25 8.709-7.528 20.588 1.285 26.638 26.152 17.953 51.689 38.077 77.975 55.698m60.483-84.082a1422 1422 0 0 0-23.641 17.011c-7.278 5.308-14.222 11.512-23.271 13.205l.031 56.412c5.39-1.743 6.905-3.087 11.443-6.334l29.819-21.048c4.359-3.058 10.579-7.755 14.949-10.428-7.579-5.204-13.978-8.329-16.377-17.703-1.835-7.181 7.618-28.07 7.047-31.115M326.664 76.099c-2.451 2.63-9.776 7.589-13.092 9.956l-24.576 17.454-21.821 15.66c-6.822 4.926-13.16 10.702-21.676 11.956l-.027 15.411c8.569 1.507 13.065 5.581 20.207 10.515a580 580 0 0 1 12.269 8.655 4332 4332 0 0 1 36.767-26.456c21.733-15.184 28.498-13.541 18.348-41.106-1.351-3.666-4.541-20.097-6.399-22.045m-87.862 217.152c-9.764 2.318-29.617 19.671-39.32 25.743-9.715 6.08-20.77 14.828-30.596 21.372-12.939 8.618.427 15.924 7.774 21.132l17.987 12.726 23.922 16.917c8.55 6.046 16.008 13.743 26.994 12.106 2.852-.799 5.067-1.667 7.53-3.369 21.265-14.691 42.268-29.75 63.304-44.776 4.047-2.893 5.939-8.805 1.687-12.604-3.526-2.852-7.606-5.52-11.333-8.147l-22.034-15.505-20.611-14.493c-8.938-6.303-13.853-11.943-25.304-11.102"/>
  <path d="M240.554 29.29c5.481-.682 5.283 3.329 5.146 7.497-.574 17.291.849 35.643-.175 52.822 2.848-3.43 19.282-23.195 22.091-23.842a3.12 3.12 0 0 1 2.551.547c1.755 1.305 1.797 3.243.575 4.923-2.399 3.296-5.204 6.266-7.865 9.358a1567 1567 0 0 1-18.779 21.375c-1.142.421-3.046.785-3.994-.203-9.246-9.625-17.846-20.066-26.491-30.246-2.974-3.503 1.659-7.969 4.659-5.069 1.945 1.883 4.108 4.456 5.95 6.514q7.303 8.165 14.493 16.43c-.152-3.244-.156-6.525-.126-9.78.145-15.864-.339-31.774.133-47.623.023-.758 1.314-2.123 1.832-2.703M380.219 168.617c1.218.1 2.607.258 3.525 1.164.632.624.902 1.484.776 2.359-.624 4.247-19.407 17.196-23.838 20.549l38.742-.024c3.506-.008 21.128-.67 23.024 1.097a3.9 3.9 0 0 1 1.237 2.704c.092 2.498-2.322 3.785-4.48 3.771-5.391-.034-10.839-.068-16.233-.064l-37.707.028-4.648-.046c7.245 6.164 15.045 11.961 22.461 17.933 3.331 2.682.072 8.951-5.128 5.046-7.458-5.602-14.809-11.371-22.084-17.22-2.817-2.255-5.923-4.507-8.515-7.008-.903-.871-.785-2.198-.663-3.352 1.542-3.246 28.719-23.365 33.531-26.937M101.84 168.648c.948.004 1.782.048 2.631.505 4.678 2.52 8.942 6.648 13.126 9.928 5.086 3.986 10.358 7.739 15.436 11.732 1.58 1.243 4.359 3.173 4.519 5.348.08 1.087-.175 2.043-.906 2.864-2.383 2.691-6.053 4.861-8.9 7.119-7.26 5.756-14.508 12.349-22.267 17.361-.692.45-1.366.804-2.211.812-.967.01-2.01-.474-2.657-1.181-.587-.638-1.032-1.738-.922-2.615.442-3.421 19.746-16.775 23.302-19.968l-.141-.38-1.032-.015-38.584.055c-6.372.018-12.97.169-19.338-.159-1.786-.092-3.306-1.575-3.457-3.406a3.35 3.35 0 0 1 .884-2.545c1.587-1.737 4.157-1.487 6.286-1.452 4.773.076 9.546.055 14.32.053l41.572-.025c-7.53-4.93-15.265-11.838-22.43-17.462-2.882-2.263-1.58-4.569.769-6.569M240.877 313.71c1.272.042 2.482-.034 3.415.933 8.249 8.543 15.882 17.786 23.732 26.69 1.37 1.458 5.641 6.86 3.072 8.641-4.367 3.027-9.86-5.185-11.992-7.632l-13.674-15.666c.24 3.453.126 7.195.126 10.671-.004 13.735.118 27.47.053 41.201-.015 2.966.213 3.286-1.919 5.315q-.525.033-1.05.026c-2.501-.03-4.02-.94-4.115-3.727-.107-3.582-.084-7.202-.042-10.788.16-14.024-.252-28.163.106-42.176-6.106 6.022-11.603 13.316-17.325 19.719-1.283 1.325-3.293 3.902-5.303 3.883-3.022-.03-4.686-3.43-2.683-5.813 4.042-5.131 8.561-9.939 12.844-14.884 2.067-2.387 4.184-4.839 6.296-7.18 2.703-2.996 5.44-6.571 8.459-9.213M240.523 174.087a16.8 16.8 0 0 1 9.525 2.143c1.648.938 3.46 2.17 5.017 3.311 9.947 7.35 21.201 13.809 30.417 22.038 4.705 4.204 1.42 10.86-2.886 13.911-4.747 3.302-9.627 7.065-14.481 10.164-7.709 4.923-15.311 12.79-24.364 14.518-7.183.333-10.625-2.279-16.213-6.363-9.372-6.976-19.872-13.274-28.802-20.749-4.85-4.06-1.672-11.061 2.699-14.158 5.215-3.731 10.51-7.72 15.874-11.228 7.652-5.006 14.15-11.542 23.214-13.587"/>
</svg>
